<svg width="193" height="38" viewBox="0 0 193 38" fill="none" xmlns="http://www.w3.org/2000/svg">
<path d="M15.0772 0.487999C18.1385 0.487999 21.1812 1.104 24.2052 2.336L22.9732 8.888L21.8532 9.336C20.5839 8.44 19.2585 7.73067 17.8772 7.208C16.5332 6.68533 15.3012 6.424 14.1812 6.424C12.6879 6.424 11.4932 6.83467 10.5972 7.656C9.70119 8.44 9.25319 9.35467 9.25319 10.4C9.25319 11.4827 9.73852 12.3973 10.7092 13.144C11.7172 13.8907 13.2852 14.768 15.4132 15.776C17.4665 16.7093 19.1279 17.5867 20.3972 18.408C21.7039 19.192 22.8052 20.2373 23.7012 21.544C24.6345 22.8507 25.1012 24.456 25.1012 26.36C25.1012 28.4133 24.5412 30.2987 23.4212 32.016C22.3012 33.696 20.7145 35.04 18.6612 36.048C16.6079 37.0187 14.2372 37.504 11.5492 37.504C8.00252 37.504 4.43719 36.7387 0.853188 35.208L1.91719 28.152L2.75719 27.704C4.25052 29.0107 5.87452 30.0187 7.62919 30.728C9.42119 31.4 11.0079 31.736 12.3892 31.736C14.0319 31.736 15.3012 31.344 16.1972 30.56C17.1305 29.7387 17.5972 28.768 17.5972 27.648C17.5972 26.4533 17.0932 25.4827 16.0852 24.736C15.1145 23.9893 13.5279 23.0933 11.3252 22.048C9.30919 21.152 7.66652 20.312 6.39719 19.528C5.12785 18.744 4.04519 17.6987 3.14919 16.392C2.25319 15.0853 1.80519 13.4987 1.80519 11.632C1.80519 9.54133 2.36519 7.656 3.48519 5.976C4.60519 4.25867 6.17319 2.91466 8.18919 1.944C10.2052 0.973332 12.5012 0.487999 15.0772 0.487999ZM54.6718 23.112L54.6158 27.424C54.6531 30.6347 53.5891 33.1173 51.4238 34.872C49.2958 36.5893 46.2345 37.448 42.2398 37.448C38.3571 37.448 35.3891 36.5893 33.3358 34.872C31.2825 33.1173 30.3118 30.6347 30.4238 27.424L30.4798 23L30.3118 8.72H37.3678L37.0318 26.416C36.9945 28.2453 37.4238 29.5893 38.3198 30.448C39.2531 31.3067 40.6531 31.736 42.5198 31.736C44.4238 31.736 45.8238 31.3067 46.7198 30.448C47.6531 29.552 48.1011 28.208 48.0638 26.416L47.7838 8.72H54.8958L54.6718 23.112ZM72.2917 8.328C74.9797 8.328 77.5557 8.79467 80.0197 9.728L78.9557 16L77.9477 16.28C76.753 15.384 75.5957 14.712 74.4757 14.264C73.3557 13.816 72.329 13.592 71.3957 13.592C70.3504 13.592 69.529 13.8533 68.9317 14.376C68.3344 14.8613 68.0357 15.4587 68.0357 16.168C68.0357 16.952 68.409 17.6053 69.1557 18.128C69.9024 18.6133 71.0784 19.192 72.6837 19.864C74.3637 20.5733 75.7264 21.2267 76.7717 21.824C77.8544 22.4213 78.769 23.2613 79.5157 24.344C80.2997 25.3893 80.6917 26.7147 80.6917 28.32C80.6917 29.9253 80.2624 31.4373 79.4037 32.856C78.5824 34.2373 77.313 35.3573 75.5957 36.216C73.9157 37.0747 71.825 37.504 69.3237 37.504C67.9797 37.504 66.505 37.3547 64.8997 37.056C63.3317 36.7947 61.801 36.3653 60.3077 35.768L61.2597 29.16L61.9877 28.656C63.2197 29.776 64.601 30.672 66.1317 31.344C67.6624 32.016 69.025 32.352 70.2197 32.352C71.265 32.352 72.105 32.0907 72.7397 31.568C73.4117 31.0453 73.7477 30.392 73.7477 29.608C73.7477 28.7867 73.3557 28.1333 72.5717 27.648C71.825 27.1253 70.649 26.5467 69.0437 25.912C67.3637 25.2027 65.9824 24.5493 64.8997 23.952C63.8544 23.3173 62.9397 22.4587 62.1557 21.376C61.409 20.2933 61.0357 18.9493 61.0357 17.344C61.0357 15.664 61.4837 14.1333 62.3797 12.752C63.313 11.3707 64.6197 10.288 66.2997 9.504C68.017 8.72 70.0144 8.328 72.2917 8.328ZM112.573 27.928L112.853 37H105.797L106.077 28.6L106.021 25.856L99.6932 25.8L94.0372 25.912L93.9812 27.928L94.2612 37H87.2052L87.4852 28.6L87.2052 8.72H94.3732L94.1492 19.92L100.141 20.032L105.965 19.976L105.797 8.72H112.965L112.573 27.928ZM127.778 27.928L128.058 37H121.002L121.282 28.6L121.002 8.72H128.17L127.778 27.928ZM155.851 22.664C158.763 27.2933 161.656 31.4747 164.531 35.208L164.419 36.048C161.992 36.9067 159.509 37.4107 156.971 37.56L156.187 36.944C153.499 32.3147 151.315 28.2827 149.635 24.848H144.203V25.576L144.539 37H136.923L137.315 26.248L136.923 0.935997L150.755 0.879998C154.525 0.879998 157.437 1.81333 159.491 3.68C161.544 5.50933 162.571 8.14133 162.571 11.576C162.571 13.8907 161.973 16.0187 160.779 17.96C159.621 19.864 157.979 21.432 155.851 22.664ZM144.315 18.968L149.859 19.192C153.032 18.1093 154.619 15.8133 154.619 12.304C154.619 10.4 154.096 8.98133 153.051 8.048C152.043 7.07733 150.475 6.55466 148.347 6.48L144.539 6.704L144.315 18.968ZM192.375 23.112L192.319 27.424C192.356 30.6347 191.292 33.1173 189.127 34.872C186.999 36.5893 183.938 37.448 179.943 37.448C176.06 37.448 173.092 36.5893 171.039 34.872C168.986 33.1173 168.015 30.6347 168.127 27.424L168.183 23L168.015 8.72H175.071L174.735 26.416C174.698 28.2453 175.127 29.5893 176.023 30.448C176.956 31.3067 178.356 31.736 180.223 31.736C182.127 31.736 183.527 31.3067 184.423 30.448C185.356 29.552 185.804 28.208 185.767 26.416L185.487 8.72H192.599L192.375 23.112Z" fill="#474747"/>
</svg>
