<svg width="404" height="41" viewBox="0 0 404 41" fill="none" xmlns="http://www.w3.org/2000/svg">
<path d="M14.3223 0.976385C17.3837 0.972607 20.4271 1.58485 23.4526 2.81312L22.2287 9.36663L21.1093 9.81601C19.8388 8.92158 18.5126 8.21389 17.1306 7.69292C15.786 7.17192 14.5537 6.9121 13.4337 6.91349C11.9403 6.91533 10.7462 7.32747 9.85119 8.14991C8.95616 8.93501 8.50929 9.85023 8.51058 10.8956C8.51191 11.9782 8.99838 12.8923 9.96996 13.6378C10.9789 14.3832 12.548 15.2586 14.6772 16.264C16.7317 17.1948 18.3941 18.07 19.6645 18.8898C20.9721 19.6722 22.0747 20.7162 22.9723 22.0217C23.9073 23.3272 24.3759 24.932 24.3783 26.836C24.3808 28.8893 23.8231 30.7753 22.7052 32.4941C21.5873 34.1754 20.0023 35.5214 17.9502 36.5319C15.8981 37.5051 13.528 37.9934 10.84 37.9967C7.29337 38.0011 3.72709 37.2402 0.141203 35.7139L1.19649 28.6566L2.03594 28.2076C3.53089 29.5124 5.15613 30.5184 6.91167 31.2256C8.7045 31.8953 10.2916 32.2294 11.6729 32.2277C13.3156 32.2257 14.5844 31.8321 15.4795 31.047C16.4118 30.2245 16.8772 29.2533 16.8759 28.1333C16.8744 26.9386 16.3692 25.9685 15.3603 25.2231C14.3887 24.4777 12.8009 23.5836 10.597 22.541C8.57985 21.6475 6.93615 20.8095 5.66585 20.0271C4.39555 19.2447 3.31159 18.2007 2.41398 16.8951C1.51637 15.5895 1.06641 14.0034 1.0641 12.1368C1.06152 10.0461 1.6192 8.16007 2.73712 6.47869C3.855 4.75997 5.42134 3.41404 7.43614 2.44088C9.45094 1.46773 11.7463 0.979565 14.3223 0.976385ZM53.9449 23.5515L53.8942 27.8636C53.9355 31.0742 52.8745 33.5582 50.7114 35.3155C48.5855 37.0355 45.5252 37.8979 41.5306 37.9028C37.6479 37.9076 34.6788 37.0526 32.6234 35.3378C30.5679 33.5857 29.5942 31.1042 29.7022 27.8934L29.7527 23.4694L29.5671 9.18958L36.6231 9.18087L36.3089 26.8773C36.2739 28.7066 36.7049 30.0501 37.6019 30.9077C38.5363 31.7652 39.9368 32.1928 41.8035 32.1905C43.7075 32.1881 45.107 31.7571 46.0019 30.8973C46.9341 30.0002 47.3805 28.6556 47.3409 26.8637L47.0391 9.16801L54.1511 9.15923L53.9449 23.5515ZM71.5465 8.74576C74.2345 8.74244 76.811 9.20593 79.2762 10.1362L78.2199 16.4095L77.2123 16.6908C76.0165 15.7962 74.8583 15.1257 73.7378 14.6791C72.6172 14.2324 71.5903 14.0097 70.657 14.0109C69.6116 14.0122 68.7906 14.2745 68.1939 14.7979C67.5972 15.284 67.2993 15.8817 67.3002 16.591C67.3011 17.375 67.6753 18.0279 68.4226 18.5496C69.1698 19.034 70.3465 19.6113 71.9527 20.2813C73.6336 20.9885 74.9971 21.6402 76.0431 22.2362C77.1265 22.8322 78.0422 23.6711 78.7902 24.7528C79.5755 25.7972 79.9692 27.122 79.9711 28.7274C79.9731 30.3327 79.5457 31.8452 78.6887 33.265C77.8691 34.6473 76.6012 35.7689 74.8849 36.6297C73.206 37.4904 71.1158 37.9223 68.6145 37.9254C67.2705 37.9271 65.7956 37.7795 64.1899 37.4829C62.6216 37.2235 61.0904 36.796 59.5963 36.2005L60.5402 29.5914L61.2676 29.0865C62.501 30.2049 63.8834 31.0992 65.4149 31.7693C66.9464 32.4395 68.3095 32.7738 69.5041 32.7723C70.5495 32.771 71.3891 32.5086 72.0232 31.9852C72.6945 31.4617 73.0297 30.8079 73.0287 30.0239C73.0277 29.2026 72.6349 28.5498 71.8503 28.0654C71.103 27.5437 69.9263 26.9664 68.3202 26.3338C66.6393 25.6265 65.2572 24.9749 64.1738 24.3789C63.1276 23.7455 62.2119 22.888 61.4266 21.8063C60.6786 20.7245 60.3036 19.381 60.3016 17.7756C60.2995 16.0956 60.7456 14.5644 61.6399 13.182C62.5716 11.7995 63.8769 10.7152 65.5559 9.92915C67.2723 9.14304 69.2691 8.74857 71.5465 8.74576ZM111.852 28.296L112.143 37.3677L105.087 37.3764L105.357 28.976L105.298 26.2321L98.9695 26.1839L93.3137 26.3029L93.2601 28.319L93.5513 37.3906L86.4953 37.3993L86.765 28.999L86.4604 9.11935L93.6284 9.11051L93.4183 20.3108L99.4104 20.4154L105.234 20.3522L105.052 9.09641L112.22 9.08756L111.852 28.296ZM127.057 28.2773L127.348 37.3489L120.292 37.3576L120.562 28.9573L120.257 9.07764L127.425 9.06879L127.057 28.2773ZM155.123 22.9786C158.041 27.6044 160.939 31.7821 163.819 35.5119L163.708 36.352C161.282 37.2137 158.8 37.7208 156.261 37.8732L155.477 37.2582C152.783 32.6322 150.594 28.6029 148.91 25.1703L143.478 25.177L143.479 25.905L143.829 37.3286L136.213 37.338L136.592 26.5855L136.168 1.27399L150 1.20092C153.771 1.19627 156.684 2.12601 158.74 3.99014C160.795 5.81693 161.825 8.44767 161.829 11.8823C161.832 14.197 161.238 16.3257 160.045 18.2685C158.89 20.174 157.25 21.744 155.123 22.9786ZM143.583 19.2969L149.127 19.514C152.299 18.4274 153.883 16.1295 153.878 12.6201C153.876 10.7161 153.352 9.29812 152.305 8.36608C151.296 7.39666 149.727 6.87593 147.599 6.80389L143.791 7.03259L143.583 19.2969ZM191.648 23.3815L191.597 27.6936C191.638 30.9042 190.578 33.3882 188.414 35.1455C186.289 36.8655 183.228 37.7279 179.234 37.7329C175.351 37.7377 172.382 36.8827 170.326 35.1679C168.271 33.4157 167.297 30.9343 167.405 27.7235L167.456 23.2994L167.27 9.01961L174.326 9.0109L174.012 26.7073C173.977 28.5367 174.408 29.8802 175.305 30.7377C176.239 31.5952 177.64 32.0228 179.507 32.0205C181.411 32.0182 182.81 31.5871 183.705 30.7273C184.637 29.8302 185.084 28.4856 185.044 26.6937L184.742 8.99805L191.854 8.98927L191.648 23.3815ZM219.216 36.1715C222.464 36.1675 224.981 33.7564 224.977 30.5644C224.973 27.4284 222.45 25.0235 219.202 25.0275C215.954 25.0315 213.437 27.4426 213.441 30.5786C213.445 33.7706 215.968 36.1755 219.216 36.1715ZM278.404 7.53544L266.106 7.55062L266.11 10.5606L296.253 10.5234L296.249 7.51342L283.564 7.52907L283.562 6.06707L300.031 6.04675L300.027 2.86475L283.558 2.88508L283.555 0.735076L278.395 0.741445L278.398 2.89144L262.402 2.91119L262.406 6.09319L278.402 6.07344L278.404 7.53544ZM299.145 19.5499C299.744 17.7001 300.429 14.7753 300.942 12.2376L297.372 11.683L296.598 11.813L262.198 11.8554L262.202 15.2954L295.484 15.2544C295.271 16.6306 295.058 17.8779 294.844 18.8672L299.145 19.5499ZM265.047 20.5809L265.05 23.2899L297.042 23.2504L297.039 20.5415L283.494 20.5582L283.492 19.1822L293.253 19.1701L293.25 16.5901L268.31 16.6209L268.313 19.2009L278.461 19.1884L278.463 20.5644L265.047 20.5809ZM273.834 32.6961L273.838 35.6631L268.635 35.6695L268.631 32.7025L273.834 32.6961ZM278.345 29.5085L264.241 29.5259L264.254 40.2329L268.64 40.2275L268.639 38.8945L278.357 38.8825L278.345 29.5085ZM301.262 28.1042L301.258 24.4922L261.096 24.5418L261.1 28.1538L291.587 28.1162L291.589 29.8792L279.549 29.894L279.554 33.291L282.779 33.2871L280.759 34.7946C282.137 35.9969 283.73 37.7579 284.42 39.004L287.77 36.4199C287.167 35.4746 286.005 34.3151 284.886 33.2845L291.594 33.2762L291.598 36.7162C291.598 37.1462 291.426 37.2324 290.996 37.2329C290.609 37.2334 289.233 37.2351 288.029 37.1936C288.547 38.2679 289.065 39.6863 289.281 40.804C291.56 40.8012 293.323 40.7991 294.569 40.2815C295.945 39.7208 296.244 38.8174 296.242 36.8394L296.238 33.2705L299.721 33.2662L299.716 29.8692L296.233 29.8735L296.231 28.1105L301.262 28.1042ZM324.605 23.2164L324.612 28.9784L313.776 28.9918L313.769 23.2298L324.605 23.2164ZM329.649 33.3582L329.631 18.8242L308.776 18.85L308.798 36.48L313.786 36.4738L313.782 33.3778L329.649 33.3582ZM331.857 11.1675L306.573 11.1987L306.579 15.6707L331.863 15.6395L331.857 11.1675ZM341.394 3.24369L306.134 3.28721L306.14 8.14621L336.154 8.10916L336.186 34.2961C336.187 35.0271 335.886 35.2425 335.112 35.2435C334.295 35.2875 331.457 35.334 329.049 35.165C329.782 36.6691 330.559 39.2051 330.733 40.7099C334.56 40.7482 337.312 40.6158 339.074 39.7106C340.921 38.8053 341.436 37.2567 341.432 34.3327L341.394 3.24369ZM368.096 23.2277C370.91 27.6883 373.705 31.7168 376.481 35.3134L376.374 36.1235C374.035 36.9544 371.642 37.4434 369.194 37.5904L368.437 36.9973C365.84 32.5365 363.729 28.6511 362.105 25.3411L356.867 25.3476L356.868 26.0496L357.205 37.0652L349.861 37.0743L350.227 26.7058L349.818 2.29829L363.156 2.22783C366.792 2.22334 369.601 3.11987 371.584 4.91743C373.566 6.67899 374.559 9.21576 374.563 12.5278C374.566 14.7598 373.992 16.8125 372.843 18.6859C371.729 20.5233 370.147 22.0372 368.096 23.2277ZM356.968 19.6775L362.314 19.8869C365.373 18.8391 366.9 16.6232 366.896 13.2392C366.894 11.4032 366.388 10.0358 365.379 9.13709C364.406 8.20229 362.893 7.70016 360.841 7.63069L357.169 7.85122L356.968 19.6775ZM403.317 23.6163L403.268 27.7743C403.308 30.8703 402.284 33.2656 400.199 34.9601C398.149 36.6187 395.198 37.4503 391.346 37.4551C387.602 37.4597 384.739 36.6352 382.757 34.9817C380.774 33.2921 379.836 30.8993 379.94 27.8031L379.988 23.5371L379.809 9.76728L386.613 9.75888L386.311 26.8233C386.277 28.5873 386.692 29.8828 387.557 30.7097C388.458 31.5366 389.809 31.949 391.609 31.9467C393.445 31.9445 394.794 31.5288 395.657 30.6997C396.556 29.8346 396.987 28.5381 396.949 26.8101L396.657 9.74649L403.515 9.73802L403.317 23.6163Z" fill="#474747"/>
</svg>
